<mxfile host="app.diagrams.net" modified="2020-10-20T03:44:18.518Z" agent="5.0 (Macintosh; Intel Mac OS X 10_15_7) AppleWebKit/537.36 (KHTML, like Gecko) Chrome/86.0.4240.80 Safari/537.36" etag="frIn7Tkocj8vuYjRFRzy" version="13.8.0" type="github">
  <diagram id="C5RBs43oDa-KdzZeNtuy" name="Page-1">
    <mxGraphModel dx="946" dy="614" grid="1" gridSize="10" guides="1" tooltips="1" connect="1" arrows="1" fold="1" page="1" pageScale="1" pageWidth="827" pageHeight="1169" math="0" shadow="0">
      <root>
        <mxCell id="WIyWlLk6GJQsqaUBKTNV-0" />
        <mxCell id="WIyWlLk6GJQsqaUBKTNV-1" parent="WIyWlLk6GJQsqaUBKTNV-0" />
        <mxCell id="OFO5cK3eKzZXRRzc6HM6-1" value="" style="edgeStyle=orthogonalEdgeStyle;rounded=0;orthogonalLoop=1;jettySize=auto;html=1;" parent="WIyWlLk6GJQsqaUBKTNV-1" source="WIyWlLk6GJQsqaUBKTNV-3" target="OFO5cK3eKzZXRRzc6HM6-0" edge="1">
          <mxGeometry relative="1" as="geometry" />
        </mxCell>
        <mxCell id="WIyWlLk6GJQsqaUBKTNV-3" value="购买商品" style="rounded=1;whiteSpace=wrap;html=1;fontSize=12;glass=0;strokeWidth=1;shadow=0;" parent="WIyWlLk6GJQsqaUBKTNV-1" vertex="1">
          <mxGeometry x="160" y="80" width="120" height="60" as="geometry" />
        </mxCell>
        <mxCell id="OFO5cK3eKzZXRRzc6HM6-5" value="" style="edgeStyle=orthogonalEdgeStyle;rounded=0;orthogonalLoop=1;jettySize=auto;html=1;" parent="WIyWlLk6GJQsqaUBKTNV-1" source="OFO5cK3eKzZXRRzc6HM6-0" target="OFO5cK3eKzZXRRzc6HM6-4" edge="1">
          <mxGeometry relative="1" as="geometry" />
        </mxCell>
        <mxCell id="OFO5cK3eKzZXRRzc6HM6-0" value="管理已购买的商品" style="rounded=1;whiteSpace=wrap;html=1;fontSize=12;glass=0;strokeWidth=1;shadow=0;" parent="WIyWlLk6GJQsqaUBKTNV-1" vertex="1">
          <mxGeometry x="940" y="80" width="120" height="60" as="geometry" />
        </mxCell>
        <mxCell id="OFO5cK3eKzZXRRzc6HM6-4" value="查看账单" style="rounded=1;whiteSpace=wrap;html=1;fontSize=12;glass=0;strokeWidth=1;shadow=0;" parent="WIyWlLk6GJQsqaUBKTNV-1" vertex="1">
          <mxGeometry x="1140" y="80" width="120" height="60" as="geometry" />
        </mxCell>
        <mxCell id="OFO5cK3eKzZXRRzc6HM6-10" value="" style="edgeStyle=orthogonalEdgeStyle;rounded=0;orthogonalLoop=1;jettySize=auto;html=1;" parent="WIyWlLk6GJQsqaUBKTNV-1" source="OFO5cK3eKzZXRRzc6HM6-8" target="OFO5cK3eKzZXRRzc6HM6-9" edge="1">
          <mxGeometry relative="1" as="geometry" />
        </mxCell>
        <mxCell id="OFO5cK3eKzZXRRzc6HM6-8" value="新增商品" style="rounded=1;whiteSpace=wrap;html=1;" parent="WIyWlLk6GJQsqaUBKTNV-1" vertex="1">
          <mxGeometry x="160" y="190" width="120" height="60" as="geometry" />
        </mxCell>
        <mxCell id="OFO5cK3eKzZXRRzc6HM6-12" value="" style="edgeStyle=orthogonalEdgeStyle;rounded=0;orthogonalLoop=1;jettySize=auto;html=1;" parent="WIyWlLk6GJQsqaUBKTNV-1" source="OFO5cK3eKzZXRRzc6HM6-9" target="OFO5cK3eKzZXRRzc6HM6-11" edge="1">
          <mxGeometry relative="1" as="geometry" />
        </mxCell>
        <mxCell id="OFO5cK3eKzZXRRzc6HM6-9" value="选择商品" style="rounded=1;whiteSpace=wrap;html=1;" parent="WIyWlLk6GJQsqaUBKTNV-1" vertex="1">
          <mxGeometry x="360" y="190" width="120" height="60" as="geometry" />
        </mxCell>
        <mxCell id="OFO5cK3eKzZXRRzc6HM6-14" value="" style="edgeStyle=orthogonalEdgeStyle;rounded=0;orthogonalLoop=1;jettySize=auto;html=1;" parent="WIyWlLk6GJQsqaUBKTNV-1" source="OFO5cK3eKzZXRRzc6HM6-11" target="OFO5cK3eKzZXRRzc6HM6-13" edge="1">
          <mxGeometry relative="1" as="geometry" />
        </mxCell>
        <mxCell id="OFO5cK3eKzZXRRzc6HM6-11" value="支付" style="rounded=1;whiteSpace=wrap;html=1;" parent="WIyWlLk6GJQsqaUBKTNV-1" vertex="1">
          <mxGeometry x="560" y="190" width="120" height="60" as="geometry" />
        </mxCell>
        <mxCell id="OFO5cK3eKzZXRRzc6HM6-13" value="完成下单" style="rounded=1;whiteSpace=wrap;html=1;" parent="WIyWlLk6GJQsqaUBKTNV-1" vertex="1">
          <mxGeometry x="760" y="190" width="120" height="60" as="geometry" />
        </mxCell>
        <mxCell id="OFO5cK3eKzZXRRzc6HM6-21" value="查看已购买的商品" style="rounded=1;whiteSpace=wrap;html=1;fontSize=12;glass=0;strokeWidth=1;shadow=0;" parent="WIyWlLk6GJQsqaUBKTNV-1" vertex="1">
          <mxGeometry x="940" y="190" width="120" height="60" as="geometry" />
        </mxCell>
        <mxCell id="OFO5cK3eKzZXRRzc6HM6-22" value="查看历史账单" style="rounded=1;whiteSpace=wrap;html=1;fontSize=12;glass=0;strokeWidth=1;shadow=0;" parent="WIyWlLk6GJQsqaUBKTNV-1" vertex="1">
          <mxGeometry x="1140" y="190" width="120" height="60" as="geometry" />
        </mxCell>
        <mxCell id="OFO5cK3eKzZXRRzc6HM6-25" value="在billing那边查看&lt;br&gt;Console中添加一个入口即可" style="text;html=1;align=center;verticalAlign=middle;resizable=0;points=[];autosize=1;" parent="WIyWlLk6GJQsqaUBKTNV-1" vertex="1">
          <mxGeometry x="1115" y="40" width="170" height="30" as="geometry" />
        </mxCell>
        <mxCell id="pMTeG2HJ4QxCKLqSzzuF-15" value="" style="edgeStyle=orthogonalEdgeStyle;rounded=0;sketch=0;orthogonalLoop=1;jettySize=auto;html=1;exitX=0;exitY=0.5;exitDx=0;exitDy=0;" parent="WIyWlLk6GJQsqaUBKTNV-1" source="pMTeG2HJ4QxCKLqSzzuF-14" target="OFO5cK3eKzZXRRzc6HM6-26" edge="1">
          <mxGeometry relative="1" as="geometry" />
        </mxCell>
        <mxCell id="OFO5cK3eKzZXRRzc6HM6-26" value="针对用户误操作&lt;br&gt;可以在运营后台中删除客户购买的某个商品" style="whiteSpace=wrap;html=1;" parent="WIyWlLk6GJQsqaUBKTNV-1" vertex="1">
          <mxGeometry x="160" y="720" width="120" height="60" as="geometry" />
        </mxCell>
        <mxCell id="OFO5cK3eKzZXRRzc6HM6-27" value="运营平台" style="text;html=1;align=center;verticalAlign=middle;resizable=0;points=[];autosize=1;" parent="WIyWlLk6GJQsqaUBKTNV-1" vertex="1">
          <mxGeometry x="180" y="650" width="60" height="20" as="geometry" />
        </mxCell>
        <mxCell id="pMTeG2HJ4QxCKLqSzzuF-0" value="管理红名单" style="rounded=0;whiteSpace=wrap;html=1;" parent="WIyWlLk6GJQsqaUBKTNV-1" vertex="1">
          <mxGeometry x="640" y="720" width="120" height="60" as="geometry" />
        </mxCell>
        <mxCell id="pMTeG2HJ4QxCKLqSzzuF-3" value="" style="edgeStyle=orthogonalEdgeStyle;rounded=0;sketch=0;orthogonalLoop=1;jettySize=auto;html=1;" parent="WIyWlLk6GJQsqaUBKTNV-1" source="pMTeG2HJ4QxCKLqSzzuF-1" target="pMTeG2HJ4QxCKLqSzzuF-2" edge="1">
          <mxGeometry relative="1" as="geometry" />
        </mxCell>
        <mxCell id="pMTeG2HJ4QxCKLqSzzuF-1" value="添加" style="rounded=0;whiteSpace=wrap;html=1;" parent="WIyWlLk6GJQsqaUBKTNV-1" vertex="1">
          <mxGeometry x="640" y="830" width="120" height="60" as="geometry" />
        </mxCell>
        <mxCell id="pMTeG2HJ4QxCKLqSzzuF-5" value="" style="edgeStyle=orthogonalEdgeStyle;rounded=0;sketch=0;orthogonalLoop=1;jettySize=auto;html=1;" parent="WIyWlLk6GJQsqaUBKTNV-1" source="pMTeG2HJ4QxCKLqSzzuF-2" target="pMTeG2HJ4QxCKLqSzzuF-4" edge="1">
          <mxGeometry relative="1" as="geometry" />
        </mxCell>
        <mxCell id="pMTeG2HJ4QxCKLqSzzuF-2" value="删除" style="rounded=0;whiteSpace=wrap;html=1;" parent="WIyWlLk6GJQsqaUBKTNV-1" vertex="1">
          <mxGeometry x="840" y="830" width="120" height="60" as="geometry" />
        </mxCell>
        <mxCell id="pMTeG2HJ4QxCKLqSzzuF-7" value="" style="edgeStyle=orthogonalEdgeStyle;rounded=0;sketch=0;orthogonalLoop=1;jettySize=auto;html=1;" parent="WIyWlLk6GJQsqaUBKTNV-1" source="pMTeG2HJ4QxCKLqSzzuF-4" target="pMTeG2HJ4QxCKLqSzzuF-6" edge="1">
          <mxGeometry relative="1" as="geometry" />
        </mxCell>
        <mxCell id="pMTeG2HJ4QxCKLqSzzuF-4" value="修改" style="rounded=0;whiteSpace=wrap;html=1;" parent="WIyWlLk6GJQsqaUBKTNV-1" vertex="1">
          <mxGeometry x="1040" y="830" width="120" height="60" as="geometry" />
        </mxCell>
        <mxCell id="pMTeG2HJ4QxCKLqSzzuF-6" value="查询" style="rounded=0;whiteSpace=wrap;html=1;" parent="WIyWlLk6GJQsqaUBKTNV-1" vertex="1">
          <mxGeometry x="1240" y="830" width="120" height="60" as="geometry" />
        </mxCell>
        <mxCell id="pMTeG2HJ4QxCKLqSzzuF-13" value="红名单中的客户，不向&lt;span style=&quot;color: rgb(51 , 51 , 51) ; font-family: &amp;#34;arial&amp;#34; , sans-serif ; font-size: 14px ; text-align: left ; background-color: rgb(255 , 255 , 255)&quot;&gt;红名单中的客户使用量不推给billing，他们按照现在的流程进行使用和计收&lt;/span&gt;" style="text;html=1;strokeColor=none;fillColor=none;align=center;verticalAlign=middle;whiteSpace=wrap;rounded=0;" parent="WIyWlLk6GJQsqaUBKTNV-1" vertex="1">
          <mxGeometry x="810" y="740" width="320" height="20" as="geometry" />
        </mxCell>
        <mxCell id="pMTeG2HJ4QxCKLqSzzuF-14" value="暂时不添加此功能" style="whiteSpace=wrap;html=1;" parent="WIyWlLk6GJQsqaUBKTNV-1" vertex="1">
          <mxGeometry x="360" y="720" width="120" height="60" as="geometry" />
        </mxCell>
      </root>
    </mxGraphModel>
  </diagram>
</mxfile>
